<mxfile host="65bd71144e">
    <diagram name="Home Page(SHOW)" id="t9t40XJ8a2fj9OIOK-BB">
        <mxGraphModel dx="612" dy="382" grid="0" gridSize="10" guides="1" tooltips="1" connect="1" arrows="1" fold="1" page="1" pageScale="1" pageWidth="1100" pageHeight="850" background="#99CCFF" math="0" shadow="0">
            <root>
                <mxCell id="LUBHQYzfLxn7oGiNUuB2-0"/>
                <mxCell id="LUBHQYzfLxn7oGiNUuB2-1" parent="LUBHQYzfLxn7oGiNUuB2-0"/>
                <mxCell id="E7AAA8RwJ4PWL_WFg9Bm-1" value="" style="rounded=0;whiteSpace=wrap;html=1;fontFamily=Georgia;fontSize=34;" parent="LUBHQYzfLxn7oGiNUuB2-1" vertex="1">
                    <mxGeometry x="182" y="110" width="1402" height="865" as="geometry"/>
                </mxCell>
                <mxCell id="E7AAA8RwJ4PWL_WFg9Bm-2" value="Take it or Leave it" style="text;strokeColor=#001DBC;fillColor=#0050ef;html=1;fontSize=43;fontStyle=1;verticalAlign=middle;align=center;rounded=1;fontFamily=Georgia;arcSize=0;fontColor=#ffffff;sketch=1;" parent="LUBHQYzfLxn7oGiNUuB2-1" vertex="1">
                    <mxGeometry x="210" y="157" width="466.5" height="40" as="geometry"/>
                </mxCell>
                <mxCell id="E7AAA8RwJ4PWL_WFg9Bm-7" value="" style="html=1;shadow=0;dashed=0;shape=mxgraph.bootstrap.rrect;rSize=5;strokeColor=#DFDFDF;html=1;whiteSpace=wrap;fillColor=#FFFFFF;fontColor=#000000;rounded=1;sketch=1;fontFamily=Georgia;fontSize=43;" parent="LUBHQYzfLxn7oGiNUuB2-1" vertex="1">
                    <mxGeometry x="216" y="209" width="250" height="123" as="geometry"/>
                </mxCell>
                <mxCell id="E7AAA8RwJ4PWL_WFg9Bm-8" value="&lt;font style=&quot;font-size: 24px&quot;&gt;Takes Page&lt;/font&gt;" style="html=1;shadow=0;dashed=0;shape=mxgraph.bootstrap.topButton;rSize=5;strokeColor=none;fillColor=#0085FC;fontColor=#ffffff;perimeter=none;whiteSpace=wrap;resizeWidth=1;align=left;spacing=15;fontSize=14;rounded=1;sketch=1;fontFamily=Georgia;" parent="E7AAA8RwJ4PWL_WFg9Bm-7" vertex="1">
                    <mxGeometry width="250" height="40" relative="1" as="geometry"/>
                </mxCell>
                <mxCell id="E7AAA8RwJ4PWL_WFg9Bm-9" value="&lt;span style=&quot;color: rgb(255 , 255 , 255) ; font-size: 24px&quot;&gt;My Takes&lt;/span&gt;" style="strokeColor=inherit;fillColor=inherit;gradientColor=inherit;fontColor=inherit;html=1;shadow=0;dashed=0;perimeter=none;whiteSpace=wrap;resizeWidth=1;align=left;spacing=15;fontSize=14;rounded=1;sketch=1;fontFamily=Georgia;" parent="E7AAA8RwJ4PWL_WFg9Bm-7" vertex="1">
                    <mxGeometry width="250" height="40" relative="1" as="geometry">
                        <mxPoint y="40" as="offset"/>
                    </mxGeometry>
                </mxCell>
                <mxCell id="E7AAA8RwJ4PWL_WFg9Bm-10" value="" style="strokeColor=inherit;fillColor=inherit;gradientColor=inherit;fontColor=inherit;html=1;shadow=0;dashed=0;perimeter=none;whiteSpace=wrap;resizeWidth=1;align=left;spacing=15;fontSize=14;rounded=1;sketch=1;fontFamily=Georgia;" parent="E7AAA8RwJ4PWL_WFg9Bm-7" vertex="1">
                    <mxGeometry width="250" height="40" relative="1" as="geometry">
                        <mxPoint y="80" as="offset"/>
                    </mxGeometry>
                </mxCell>
                <mxCell id="E7AAA8RwJ4PWL_WFg9Bm-11" value="&lt;span style=&quot;color: rgb(255 , 255 , 255) ; font-size: 24px&quot;&gt;Sign Out&lt;/span&gt;" style="strokeColor=inherit;fillColor=inherit;gradientColor=inherit;fontColor=inherit;html=1;shadow=0;dashed=0;shape=mxgraph.bootstrap.bottomButton;rSize=5;perimeter=none;whiteSpace=wrap;resizeWidth=1;resizeHeight=0;align=left;spacing=15;fontSize=14;rounded=1;sketch=1;fontFamily=Georgia;" parent="E7AAA8RwJ4PWL_WFg9Bm-7" vertex="1">
                    <mxGeometry y="1" width="250" height="40" relative="1" as="geometry">
                        <mxPoint y="-40" as="offset"/>
                    </mxGeometry>
                </mxCell>
                <mxCell id="E7AAA8RwJ4PWL_WFg9Bm-17" value="&lt;h1&gt;Takes&lt;/h1&gt;&lt;p&gt;Lorem ipsum dolor sit amet, consectetur adipisicing elit, sed do eiusmod tempor incididunt ut labore et dolore magna aliqua.&lt;/p&gt;" style="text;html=1;strokeColor=none;fillColor=#3333FF;spacing=5;spacingTop=-20;whiteSpace=wrap;overflow=hidden;rounded=0;sketch=1;fontFamily=Georgia;fontSize=24;" parent="LUBHQYzfLxn7oGiNUuB2-1" vertex="1">
                    <mxGeometry x="362" y="344" width="707" height="188" as="geometry"/>
                </mxCell>
                <mxCell id="E7AAA8RwJ4PWL_WFg9Bm-18" value="&lt;h1&gt;Takes&lt;/h1&gt;&lt;p&gt;Lorem ipsum dolor sit amet, consectetur adipisicing elit, sed do eiusmod tempor incididunt ut labore et dolore magna aliqua.&lt;/p&gt;" style="text;html=1;strokeColor=none;fillColor=#3333FF;spacing=5;spacingTop=-20;whiteSpace=wrap;overflow=hidden;rounded=0;sketch=1;fontFamily=Georgia;fontSize=24;" parent="LUBHQYzfLxn7oGiNUuB2-1" vertex="1">
                    <mxGeometry x="362" y="543" width="707" height="188" as="geometry"/>
                </mxCell>
                <mxCell id="E7AAA8RwJ4PWL_WFg9Bm-19" value="&lt;h1&gt;Takes&lt;/h1&gt;&lt;p&gt;Lorem ipsum dolor sit amet, consectetur adipisicing elit, sed do eiusmod tempor incididunt ut labore et dolore magna aliqua.&lt;/p&gt;" style="text;html=1;strokeColor=none;fillColor=#3333FF;spacing=5;spacingTop=-20;whiteSpace=wrap;overflow=hidden;rounded=0;sketch=1;fontFamily=Georgia;fontSize=24;" parent="LUBHQYzfLxn7oGiNUuB2-1" vertex="1">
                    <mxGeometry x="362" y="752" width="707" height="188" as="geometry"/>
                </mxCell>
            </root>
        </mxGraphModel>
    </diagram>
    <diagram name="Takes (INDEX)" id="IBePrU0yvaSqKLXG5PtH">
        <mxGraphModel dx="612" dy="382" grid="0" gridSize="10" guides="1" tooltips="1" connect="1" arrows="1" fold="1" page="1" pageScale="1" pageWidth="1100" pageHeight="850" background="#99CCFF" math="0" shadow="0">
            <root>
                <mxCell id="BxaGa0RAkVYZdJjBQWNP-0"/>
                <mxCell id="BxaGa0RAkVYZdJjBQWNP-1" parent="BxaGa0RAkVYZdJjBQWNP-0"/>
                <mxCell id="BxaGa0RAkVYZdJjBQWNP-2" value="&lt;span style=&quot;color: rgba(0 , 0 , 0 , 0) ; font-family: monospace ; font-size: 0px&quot;&gt;%3CmxGraphModel%3E%3Croot%3E%3CmxCell%20id%3D%220%22%2F%3E%3CmxCell%20id%3D%221%22%20parent%3D%220%22%2F%3E%3CmxCell%20id%3D%222%22%20value%3D%22%26lt%3Bh1%26gt%3BTakes%26lt%3B%2Fh1%26gt%3B%26lt%3Bp%26gt%3BLorem%20ipsum%20dolor%20sit%20amet%2C%20consectetur%20adipisicing%20elit%2C%20sed%20do%20eiusmod%20tempor%20incididunt%20ut%20labore%20et%20dolore%20magna%20aliqua.%26lt%3B%2Fp%26gt%3B%22%20style%3D%22text%3Bhtml%3D1%3BstrokeColor%3Dnone%3BfillColor%3D%233333FF%3Bspacing%3D5%3BspacingTop%3D-20%3BwhiteSpace%3Dwrap%3Boverflow%3Dhidden%3Brounded%3D0%3Bsketch%3D1%3BfontFamily%3DGeorgia%3BfontSize%3D24%3B%22%20vertex%3D%221%22%20parent%3D%221%22%3E%3CmxGeometry%20x%3D%22362%22%20y%3D%22543%22%20width%3D%22707%22%20height%3D%22188%22%20as%3D%22geometry%22%2F%3E%3C%2FmxCell%3E%3C%2Froot%3E%3C%2FmxGraphModel%3E&lt;/span&gt;" style="rounded=0;whiteSpace=wrap;html=1;fontFamily=Georgia;fontSize=34;" parent="BxaGa0RAkVYZdJjBQWNP-1" vertex="1">
                    <mxGeometry x="182" y="110" width="2573" height="1299" as="geometry"/>
                </mxCell>
                <mxCell id="BxaGa0RAkVYZdJjBQWNP-3" value="Take it or Leave it" style="text;strokeColor=#001DBC;fillColor=#0050ef;html=1;fontSize=43;fontStyle=1;verticalAlign=middle;align=center;rounded=1;fontFamily=Georgia;arcSize=0;fontColor=#ffffff;sketch=1;" parent="BxaGa0RAkVYZdJjBQWNP-1" vertex="1">
                    <mxGeometry x="210" y="157" width="466.5" height="40" as="geometry"/>
                </mxCell>
                <mxCell id="BxaGa0RAkVYZdJjBQWNP-9" value="&lt;h1&gt;Takes&lt;/h1&gt;&lt;p&gt;&lt;br&gt;&lt;/p&gt;&lt;p&gt;&lt;br&gt;&lt;/p&gt;&lt;p&gt;&lt;br&gt;&lt;/p&gt;&lt;p&gt;&lt;br&gt;&lt;/p&gt;&lt;blockquote style=&quot;margin: 0 0 0 40px ; border: none ; padding: 0px&quot;&gt;&lt;blockquote style=&quot;margin: 0 0 0 40px ; border: none ; padding: 0px&quot;&gt;&lt;blockquote style=&quot;margin: 0 0 0 40px ; border: none ; padding: 0px&quot;&gt;&lt;blockquote style=&quot;margin: 0 0 0 40px ; border: none ; padding: 0px&quot;&gt;&lt;p&gt;&lt;span style=&quot;white-space: pre&quot;&gt;&#9;&lt;span style=&quot;white-space: pre&quot;&gt;&#9;&lt;/span&gt;&lt;/span&gt;&lt;span style=&quot;white-space: pre&quot;&gt;&#9;&lt;/span&gt;&lt;span style=&quot;white-space: pre&quot;&gt;&#9;&lt;/span&gt;Lorem ipsum dolor sit amet, consectetur adipisicing elit, sed do eiusmod tempor incididunt ut labore et dolore magna aliqua.&lt;/p&gt;&lt;/blockquote&gt;&lt;/blockquote&gt;&lt;/blockquote&gt;&lt;/blockquote&gt;" style="text;html=1;strokeColor=none;fillColor=#3333FF;spacing=5;spacingTop=-20;whiteSpace=wrap;overflow=hidden;rounded=0;sketch=1;fontFamily=Georgia;fontSize=24;align=left;" parent="BxaGa0RAkVYZdJjBQWNP-1" vertex="1">
                    <mxGeometry x="976" y="242" width="1095" height="453" as="geometry"/>
                </mxCell>
                <mxCell id="BxaGa0RAkVYZdJjBQWNP-13" value="&lt;span style=&quot;background-color: rgb(255 , 255 , 255)&quot;&gt;&lt;font color=&quot;#000000&quot;&gt;IMAGE&lt;/font&gt;&lt;/span&gt;" style="whiteSpace=wrap;html=1;aspect=fixed;rounded=1;sketch=1;fontFamily=Georgia;fontSize=24;fillColor=#FFFF66;" parent="BxaGa0RAkVYZdJjBQWNP-1" vertex="1">
                    <mxGeometry x="1474" y="272" width="220" height="220" as="geometry"/>
                </mxCell>
                <mxCell id="Ot0AhG1TljKfU-ltVYtm-0" value="&lt;h1&gt;Comments&lt;/h1&gt;&lt;p&gt;Lorem ipsum dolor sit amet, consectetur adipisicing elit, sed do eiusmod tempor incididunt ut labore et dolore magna aliqua.&lt;/p&gt;" style="text;html=1;strokeColor=none;fillColor=#3333FF;spacing=5;spacingTop=-20;whiteSpace=wrap;overflow=hidden;rounded=0;sketch=1;fontFamily=Georgia;fontSize=24;" parent="BxaGa0RAkVYZdJjBQWNP-1" vertex="1">
                    <mxGeometry x="979" y="728" width="707" height="188" as="geometry"/>
                </mxCell>
                <mxCell id="Ot0AhG1TljKfU-ltVYtm-1" value="Like" style="labelPosition=center;verticalLabelPosition=middle;align=center;html=1;shape=mxgraph.basic.button;dx=10;rounded=1;labelBackgroundColor=#FFFFFF;sketch=1;fontFamily=Georgia;fontSize=24;fontColor=#000000;fillColor=#FFFF66;" parent="BxaGa0RAkVYZdJjBQWNP-1" vertex="1">
                    <mxGeometry x="1157" y="630" width="100" height="60" as="geometry"/>
                </mxCell>
                <mxCell id="Ot0AhG1TljKfU-ltVYtm-3" value="Dislike" style="labelPosition=center;verticalLabelPosition=middle;align=center;html=1;shape=mxgraph.basic.button;dx=10;rounded=1;labelBackgroundColor=#FFFFFF;sketch=1;fontFamily=Georgia;fontSize=24;fontColor=#000000;fillColor=#FFFF66;" parent="BxaGa0RAkVYZdJjBQWNP-1" vertex="1">
                    <mxGeometry x="1344" y="630" width="100" height="60" as="geometry"/>
                </mxCell>
                <mxCell id="WYM-gX9KMJQoixdSAUw8-0" value="&lt;h1&gt;Comments&lt;/h1&gt;&lt;p&gt;Lorem ipsum dolor sit amet, consectetur adipisicing elit, sed do eiusmod tempor incididunt ut labore et dolore magna aliqua.&lt;/p&gt;" style="text;html=1;strokeColor=none;fillColor=#3333FF;spacing=5;spacingTop=-20;whiteSpace=wrap;overflow=hidden;rounded=0;sketch=1;fontFamily=Georgia;fontSize=24;" parent="BxaGa0RAkVYZdJjBQWNP-1" vertex="1">
                    <mxGeometry x="979" y="936" width="707" height="188" as="geometry"/>
                </mxCell>
                <mxCell id="WYM-gX9KMJQoixdSAUw8-1" value="&lt;h1&gt;Comments&lt;/h1&gt;&lt;p&gt;Lorem ipsum dolor sit amet, consectetur adipisicing elit, sed do eiusmod tempor incididunt ut labore et dolore magna aliqua.&lt;/p&gt;" style="text;html=1;strokeColor=none;fillColor=#3333FF;spacing=5;spacingTop=-20;whiteSpace=wrap;overflow=hidden;rounded=0;sketch=1;fontFamily=Georgia;fontSize=24;" parent="BxaGa0RAkVYZdJjBQWNP-1" vertex="1">
                    <mxGeometry x="976" y="1166" width="707" height="188" as="geometry"/>
                </mxCell>
            </root>
        </mxGraphModel>
    </diagram>
    <diagram name="Sign In" id="nSauHe5pM75P_MBhLmc3">
        <mxGraphModel dx="612" dy="382" grid="0" gridSize="10" guides="1" tooltips="1" connect="1" arrows="1" fold="1" page="1" pageScale="1" pageWidth="1100" pageHeight="850" background="#99CCFF" math="0" shadow="0">
            <root>
                <mxCell id="rusBwF3JVsOBPVPy7qvN-0"/>
                <mxCell id="rusBwF3JVsOBPVPy7qvN-1" parent="rusBwF3JVsOBPVPy7qvN-0"/>
                <mxCell id="rusBwF3JVsOBPVPy7qvN-2" value="&lt;span style=&quot;color: rgba(0 , 0 , 0 , 0) ; font-family: monospace ; font-size: 0px&quot;&gt;%3CmxGraphModel%3E%3Croot%3E%3CmxCell%20id%3D%220%22%2F%3E%3CmxCell%20id%3D%221%22%20parent%3D%220%22%2F%3E%3CmxCell%20id%3D%222%22%20value%3D%22%26lt%3Bh1%26gt%3BTakes%26lt%3B%2Fh1%26gt%3B%26lt%3Bp%26gt%3BLorem%20ipsum%20dolor%20sit%20amet%2C%20consectetur%20adipisicing%20elit%2C%20sed%20do%20eiusmod%20tempor%20incididunt%20ut%20labore%20et%20dolore%20magna%20aliqua.%26lt%3B%2Fp%26gt%3B%22%20style%3D%22text%3Bhtml%3D1%3BstrokeColor%3Dnone%3BfillColor%3D%233333FF%3Bspacing%3D5%3BspacingTop%3D-20%3BwhiteSpace%3Dwrap%3Boverflow%3Dhidden%3Brounded%3D0%3Bsketch%3D1%3BfontFamily%3DGeorgia%3BfontSize%3D24%3B%22%20vertex%3D%221%22%20parent%3D%221%22%3E%3CmxGeometry%20x%3D%22362%22%20y%3D%22543%22%20width%3D%22707%22%20height%3D%22188%22%20as%3D%22geometry%22%2F%3E%3C%2FmxCell%3E%3C%2Froot%3E%3C%2FmxGraphModel%3E&lt;/span&gt;" style="rounded=0;whiteSpace=wrap;html=1;fontFamily=Georgia;fontSize=34;" parent="rusBwF3JVsOBPVPy7qvN-1" vertex="1">
                    <mxGeometry x="182" y="110" width="2573" height="1299" as="geometry"/>
                </mxCell>
                <mxCell id="rusBwF3JVsOBPVPy7qvN-3" value="Take it or Leave it" style="text;strokeColor=#001DBC;fillColor=#0050ef;html=1;fontSize=43;fontStyle=1;verticalAlign=middle;align=center;rounded=1;fontFamily=Georgia;arcSize=0;fontColor=#ffffff;sketch=1;" parent="rusBwF3JVsOBPVPy7qvN-1" vertex="1">
                    <mxGeometry x="210" y="157" width="466.5" height="40" as="geometry"/>
                </mxCell>
                <mxCell id="rusBwF3JVsOBPVPy7qvN-4" value="&lt;h1&gt;Sign IN&lt;/h1&gt;" style="text;html=1;strokeColor=none;fillColor=#3333FF;spacing=5;spacingTop=-20;whiteSpace=wrap;overflow=hidden;rounded=0;sketch=1;fontFamily=Georgia;fontSize=24;align=left;" parent="rusBwF3JVsOBPVPy7qvN-1" vertex="1">
                    <mxGeometry x="847" y="293" width="1473" height="933" as="geometry"/>
                </mxCell>
                <mxCell id="rusBwF3JVsOBPVPy7qvN-12" value="" style="html=1;shadow=0;dashed=0;shape=mxgraph.bootstrap.rrect;rSize=5;fillColor=none;strokeColor=#999999;align=left;spacing=15;fontSize=14;fontColor=#6C767D;rounded=1;labelBackgroundColor=#FFFFFF;sketch=1;fontFamily=Georgia;" parent="rusBwF3JVsOBPVPy7qvN-1" vertex="1">
                    <mxGeometry width="800" height="30" relative="1" as="geometry">
                        <mxPoint x="1346" y="710" as="offset"/>
                    </mxGeometry>
                </mxCell>
                <mxCell id="rusBwF3JVsOBPVPy7qvN-15" value="" style="html=1;shadow=0;dashed=0;shape=mxgraph.bootstrap.rrect;rSize=5;fillColor=none;strokeColor=#999999;align=left;spacing=15;fontSize=14;fontColor=#6C767D;rounded=1;labelBackgroundColor=#FFFFFF;sketch=1;fontFamily=Georgia;" parent="rusBwF3JVsOBPVPy7qvN-1" vertex="1">
                    <mxGeometry width="800" height="30" relative="1" as="geometry">
                        <mxPoint x="1346" y="810" as="offset"/>
                    </mxGeometry>
                </mxCell>
                <mxCell id="rusBwF3JVsOBPVPy7qvN-20" value="" style="rounded=1;whiteSpace=wrap;html=1;labelBackgroundColor=#FFFFFF;sketch=1;fontFamily=Georgia;fontSize=24;fontColor=#000000;fillColor=#FFFF66;" parent="rusBwF3JVsOBPVPy7qvN-1" vertex="1">
                    <mxGeometry x="1058" y="435" width="1166" height="477" as="geometry"/>
                </mxCell>
                <mxCell id="rusBwF3JVsOBPVPy7qvN-21" value="" style="strokeWidth=1;shadow=0;dashed=0;align=center;html=1;shape=mxgraph.mockup.forms.rrect;rSize=0;strokeColor=#6c8ebf;fillColor=#dae8fc;rounded=1;labelBackgroundColor=#000000;sketch=0;fontFamily=Georgia;fontSize=20;opacity=0;" parent="rusBwF3JVsOBPVPy7qvN-1" vertex="1">
                    <mxGeometry x="1152" y="511" width="1028" height="329" as="geometry"/>
                </mxCell>
                <mxCell id="rusBwF3JVsOBPVPy7qvN-22" value="Sign In" style="strokeWidth=1;shadow=0;dashed=0;align=center;html=1;shape=mxgraph.mockup.forms.anchor;fontSize=29;fontColor=#666666;align=left;resizeWidth=1;spacingLeft=0;rounded=1;labelBackgroundColor=#FFFFFF;sketch=1;fontFamily=Georgia;fillColor=#FFFF66;" parent="rusBwF3JVsOBPVPy7qvN-21" vertex="1">
                    <mxGeometry width="514" height="20" relative="1" as="geometry">
                        <mxPoint x="10" y="10" as="offset"/>
                    </mxGeometry>
                </mxCell>
                <mxCell id="rusBwF3JVsOBPVPy7qvN-23" value="" style="shape=line;strokeColor=#ddeeff;strokeWidth=2;html=1;resizeWidth=1;rounded=1;labelBackgroundColor=#FFFFFF;sketch=1;fontFamily=Georgia;fontSize=24;fontColor=#000000;fillColor=#FFFF66;" parent="rusBwF3JVsOBPVPy7qvN-21" vertex="1">
                    <mxGeometry width="925.1999999999998" height="10" relative="1" as="geometry">
                        <mxPoint x="10" y="30" as="offset"/>
                    </mxGeometry>
                </mxCell>
                <mxCell id="rusBwF3JVsOBPVPy7qvN-24" value="User Name:" style="strokeWidth=1;shadow=0;dashed=0;align=center;html=1;shape=mxgraph.mockup.forms.anchor;fontSize=22;fontColor=#666666;align=left;resizeWidth=1;spacingLeft=0;rounded=1;labelBackgroundColor=#FFFFFF;sketch=1;fontFamily=Georgia;fillColor=#FFFF66;" parent="rusBwF3JVsOBPVPy7qvN-21" vertex="1">
                    <mxGeometry width="514" height="20" relative="1" as="geometry">
                        <mxPoint x="10" y="37" as="offset"/>
                    </mxGeometry>
                </mxCell>
                <mxCell id="rusBwF3JVsOBPVPy7qvN-25" value="johndoe" style="strokeWidth=1;shadow=0;dashed=0;align=center;html=1;shape=mxgraph.mockup.forms.rrect;rSize=0;strokeColor=#999999;fontColor=#666666;align=left;spacingLeft=5;resizeWidth=1;rounded=1;labelBackgroundColor=#FFFFFF;sketch=1;fontFamily=Georgia;fontSize=33;fillColor=#FFFF66;" parent="rusBwF3JVsOBPVPy7qvN-21" vertex="1">
                    <mxGeometry width="771" height="25" relative="1" as="geometry">
                        <mxPoint x="129" y="77" as="offset"/>
                    </mxGeometry>
                </mxCell>
                <mxCell id="rusBwF3JVsOBPVPy7qvN-26" value="&lt;font style=&quot;font-size: 24px&quot;&gt;Password:&lt;/font&gt;" style="strokeWidth=1;shadow=0;dashed=0;align=center;html=1;shape=mxgraph.mockup.forms.anchor;fontSize=12;fontColor=#666666;align=left;resizeWidth=1;spacingLeft=0;rounded=1;labelBackgroundColor=#FFFFFF;sketch=1;fontFamily=Georgia;fillColor=#FFFF66;" parent="rusBwF3JVsOBPVPy7qvN-21" vertex="1">
                    <mxGeometry width="514" height="20" relative="1" as="geometry">
                        <mxPoint x="10" y="95" as="offset"/>
                    </mxGeometry>
                </mxCell>
                <mxCell id="rusBwF3JVsOBPVPy7qvN-27" value="********" style="strokeWidth=1;shadow=0;dashed=0;align=center;html=1;shape=mxgraph.mockup.forms.rrect;rSize=0;strokeColor=#999999;fontColor=#666666;align=left;spacingLeft=5;resizeWidth=1;rounded=1;labelBackgroundColor=#FFFFFF;sketch=1;fontFamily=Georgia;fontSize=24;fillColor=#FFFF66;" parent="rusBwF3JVsOBPVPy7qvN-21" vertex="1">
                    <mxGeometry width="771" height="25" relative="1" as="geometry">
                        <mxPoint x="99" y="144" as="offset"/>
                    </mxGeometry>
                </mxCell>
                <mxCell id="rusBwF3JVsOBPVPy7qvN-28" value="SIGN IN" style="strokeWidth=1;shadow=0;dashed=0;align=center;html=1;shape=mxgraph.mockup.forms.rrect;rSize=5;strokeColor=none;fontColor=#ffffff;fillColor=#66bbff;fontSize=26;fontStyle=1;rounded=1;labelBackgroundColor=#000000;sketch=1;fontFamily=Georgia;" parent="rusBwF3JVsOBPVPy7qvN-21" vertex="1">
                    <mxGeometry y="1" width="80" height="30" relative="1" as="geometry">
                        <mxPoint x="20" y="-150" as="offset"/>
                    </mxGeometry>
                </mxCell>
                <mxCell id="rusBwF3JVsOBPVPy7qvN-29" value="Forgot Password?" style="strokeWidth=1;shadow=0;dashed=0;align=center;html=1;shape=mxgraph.mockup.forms.anchor;fontSize=12;fontColor=#9999ff;align=left;spacingLeft=0;fontStyle=4;resizeWidth=1;rounded=1;labelBackgroundColor=#FFFFFF;sketch=1;fontFamily=Georgia;fillColor=#FFFF66;" parent="rusBwF3JVsOBPVPy7qvN-21" vertex="1">
                    <mxGeometry y="1" width="771" height="20" relative="1" as="geometry">
                        <mxPoint x="10" y="-110" as="offset"/>
                    </mxGeometry>
                </mxCell>
                <mxCell id="rusBwF3JVsOBPVPy7qvN-30" value="" style="shape=line;strokeColor=#ddeeff;strokeWidth=2;html=1;resizeWidth=1;rounded=1;labelBackgroundColor=#FFFFFF;sketch=1;fontFamily=Georgia;fontSize=24;fontColor=#000000;fillColor=#FFFF66;" parent="rusBwF3JVsOBPVPy7qvN-21" vertex="1">
                    <mxGeometry y="1" width="925.1999999999998" height="10" relative="1" as="geometry">
                        <mxPoint x="10" y="-90" as="offset"/>
                    </mxGeometry>
                </mxCell>
                <mxCell id="rusBwF3JVsOBPVPy7qvN-31" value="New User" style="strokeWidth=1;shadow=0;dashed=0;align=center;html=1;shape=mxgraph.mockup.forms.anchor;fontSize=12;fontColor=#666666;align=left;spacingLeft=0;resizeWidth=1;rounded=1;labelBackgroundColor=#FFFFFF;sketch=1;fontFamily=Georgia;fillColor=#FFFF66;" parent="rusBwF3JVsOBPVPy7qvN-21" vertex="1">
                    <mxGeometry y="1" width="771" height="20" relative="1" as="geometry">
                        <mxPoint x="10" y="-70" as="offset"/>
                    </mxGeometry>
                </mxCell>
                <mxCell id="rusBwF3JVsOBPVPy7qvN-32" value="SIGN UP" style="strokeWidth=1;shadow=0;dashed=0;align=center;html=1;shape=mxgraph.mockup.forms.rrect;rSize=5;strokeColor=none;fontColor=#ffffff;fillColor=#66bbff;fontSize=16;fontStyle=1;rounded=1;labelBackgroundColor=#FFFFFF;sketch=1;fontFamily=Georgia;" parent="rusBwF3JVsOBPVPy7qvN-21" vertex="1">
                    <mxGeometry y="1" width="80" height="30" relative="1" as="geometry">
                        <mxPoint x="20" y="-50" as="offset"/>
                    </mxGeometry>
                </mxCell>
            </root>
        </mxGraphModel>
    </diagram>
    <diagram name="Sign Out" id="MAVrj_Dr3JcHXQV4qsHV">
        <mxGraphModel dx="612" dy="382" grid="0" gridSize="10" guides="1" tooltips="1" connect="1" arrows="1" fold="1" page="1" pageScale="1" pageWidth="1100" pageHeight="850" background="#99CCFF" math="0" shadow="0">
            <root>
                <mxCell id="4CNLaxFEHcmkVep9LnnV-0"/>
                <mxCell id="4CNLaxFEHcmkVep9LnnV-1" parent="4CNLaxFEHcmkVep9LnnV-0"/>
                <mxCell id="4CNLaxFEHcmkVep9LnnV-2" value="&lt;span style=&quot;color: rgba(0 , 0 , 0 , 0) ; font-family: monospace ; font-size: 0px&quot;&gt;%3CmxGraphModel%3E%3Croot%3E%3CmxCell%20id%3D%220%22%2F%3E%3CmxCell%20id%3D%221%22%20parent%3D%220%22%2F%3E%3CmxCell%20id%3D%222%22%20value%3D%22%26lt%3Bh1%26gt%3BTakes%26lt%3B%2Fh1%26gt%3B%26lt%3Bp%26gt%3BLorem%20ipsum%20dolor%20sit%20amet%2C%20consectetur%20adipisicing%20elit%2C%20sed%20do%20eiusmod%20tempor%20incididunt%20ut%20labore%20et%20dolore%20magna%20aliqua.%26lt%3B%2Fp%26gt%3B%22%20style%3D%22text%3Bhtml%3D1%3BstrokeColor%3Dnone%3BfillColor%3D%233333FF%3Bspacing%3D5%3BspacingTop%3D-20%3BwhiteSpace%3Dwrap%3Boverflow%3Dhidden%3Brounded%3D0%3Bsketch%3D1%3BfontFamily%3DGeorgia%3BfontSize%3D24%3B%22%20vertex%3D%221%22%20parent%3D%221%22%3E%3CmxGeometry%20x%3D%22362%22%20y%3D%22543%22%20width%3D%22707%22%20height%3D%22188%22%20as%3D%22geometry%22%2F%3E%3C%2FmxCell%3E%3C%2Froot%3E%3C%2FmxGraphModel%3E&lt;/span&gt;" style="rounded=0;whiteSpace=wrap;html=1;fontFamily=Georgia;fontSize=34;" parent="4CNLaxFEHcmkVep9LnnV-1" vertex="1">
                    <mxGeometry x="182" y="110" width="2573" height="1299" as="geometry"/>
                </mxCell>
                <mxCell id="4CNLaxFEHcmkVep9LnnV-3" value="Take it or Leave it" style="text;strokeColor=#001DBC;fillColor=#0050ef;html=1;fontSize=43;fontStyle=1;verticalAlign=middle;align=center;rounded=1;fontFamily=Georgia;arcSize=0;fontColor=#ffffff;sketch=1;" parent="4CNLaxFEHcmkVep9LnnV-1" vertex="1">
                    <mxGeometry x="210" y="157" width="466.5" height="40" as="geometry"/>
                </mxCell>
                <mxCell id="4CNLaxFEHcmkVep9LnnV-4" value="&lt;h1&gt;Sign Out&lt;/h1&gt;" style="text;html=1;strokeColor=none;fillColor=#3333FF;spacing=5;spacingTop=-20;whiteSpace=wrap;overflow=hidden;rounded=0;sketch=1;fontFamily=Georgia;fontSize=24;align=left;" parent="4CNLaxFEHcmkVep9LnnV-1" vertex="1">
                    <mxGeometry x="847" y="293" width="1473" height="933" as="geometry"/>
                </mxCell>
                <mxCell id="4CNLaxFEHcmkVep9LnnV-5" value="" style="html=1;shadow=0;dashed=0;shape=mxgraph.bootstrap.rrect;rSize=5;fillColor=none;strokeColor=#999999;align=left;spacing=15;fontSize=14;fontColor=#6C767D;rounded=1;labelBackgroundColor=#FFFFFF;sketch=1;fontFamily=Georgia;" parent="4CNLaxFEHcmkVep9LnnV-1" vertex="1">
                    <mxGeometry width="800" height="30" relative="1" as="geometry">
                        <mxPoint x="1346" y="710" as="offset"/>
                    </mxGeometry>
                </mxCell>
                <mxCell id="4CNLaxFEHcmkVep9LnnV-6" value="" style="html=1;shadow=0;dashed=0;shape=mxgraph.bootstrap.rrect;rSize=5;fillColor=none;strokeColor=#999999;align=left;spacing=15;fontSize=14;fontColor=#6C767D;rounded=1;labelBackgroundColor=#FFFFFF;sketch=1;fontFamily=Georgia;" parent="4CNLaxFEHcmkVep9LnnV-1" vertex="1">
                    <mxGeometry width="800" height="30" relative="1" as="geometry">
                        <mxPoint x="1346" y="810" as="offset"/>
                    </mxGeometry>
                </mxCell>
                <mxCell id="4CNLaxFEHcmkVep9LnnV-7" value="" style="rounded=1;whiteSpace=wrap;html=1;labelBackgroundColor=#FFFFFF;sketch=1;fontFamily=Georgia;fontSize=24;fontColor=#000000;fillColor=#FFFF66;" parent="4CNLaxFEHcmkVep9LnnV-1" vertex="1">
                    <mxGeometry x="1058" y="435" width="1166" height="477" as="geometry"/>
                </mxCell>
                <mxCell id="4CNLaxFEHcmkVep9LnnV-8" value="" style="strokeWidth=1;shadow=0;dashed=0;align=center;html=1;shape=mxgraph.mockup.forms.rrect;rSize=0;strokeColor=#6c8ebf;fillColor=#dae8fc;rounded=1;labelBackgroundColor=#000000;sketch=0;fontFamily=Georgia;fontSize=20;opacity=0;" parent="4CNLaxFEHcmkVep9LnnV-1" vertex="1">
                    <mxGeometry x="1152" y="511" width="1028" height="329" as="geometry"/>
                </mxCell>
                <mxCell id="4CNLaxFEHcmkVep9LnnV-9" value="Sign Out" style="strokeWidth=1;shadow=0;dashed=0;align=center;html=1;shape=mxgraph.mockup.forms.anchor;fontSize=29;fontColor=#666666;align=left;resizeWidth=1;spacingLeft=0;rounded=1;labelBackgroundColor=#FFFFFF;sketch=1;fontFamily=Georgia;fillColor=#FFFF66;" parent="4CNLaxFEHcmkVep9LnnV-8" vertex="1">
                    <mxGeometry width="514" height="20" relative="1" as="geometry">
                        <mxPoint x="10" y="10" as="offset"/>
                    </mxGeometry>
                </mxCell>
                <mxCell id="4CNLaxFEHcmkVep9LnnV-10" value="" style="shape=line;strokeColor=#ddeeff;strokeWidth=2;html=1;resizeWidth=1;rounded=1;labelBackgroundColor=#FFFFFF;sketch=1;fontFamily=Georgia;fontSize=24;fontColor=#000000;fillColor=#FFFF66;" parent="4CNLaxFEHcmkVep9LnnV-8" vertex="1">
                    <mxGeometry width="925.1999999999998" height="10" relative="1" as="geometry">
                        <mxPoint x="10" y="30" as="offset"/>
                    </mxGeometry>
                </mxCell>
                <mxCell id="4CNLaxFEHcmkVep9LnnV-11" value="User Name:" style="strokeWidth=1;shadow=0;dashed=0;align=center;html=1;shape=mxgraph.mockup.forms.anchor;fontSize=22;fontColor=#666666;align=left;resizeWidth=1;spacingLeft=0;rounded=1;labelBackgroundColor=#FFFFFF;sketch=1;fontFamily=Georgia;fillColor=#FFFF66;" parent="4CNLaxFEHcmkVep9LnnV-8" vertex="1">
                    <mxGeometry width="514" height="20" relative="1" as="geometry">
                        <mxPoint x="10" y="37" as="offset"/>
                    </mxGeometry>
                </mxCell>
                <mxCell id="4CNLaxFEHcmkVep9LnnV-12" value="johndoe" style="strokeWidth=1;shadow=0;dashed=0;align=center;html=1;shape=mxgraph.mockup.forms.rrect;rSize=0;strokeColor=#999999;fontColor=#666666;align=left;spacingLeft=5;resizeWidth=1;rounded=1;labelBackgroundColor=#FFFFFF;sketch=1;fontFamily=Georgia;fontSize=33;fillColor=#FFFF66;" parent="4CNLaxFEHcmkVep9LnnV-8" vertex="1">
                    <mxGeometry width="771" height="25" relative="1" as="geometry">
                        <mxPoint x="129" y="77" as="offset"/>
                    </mxGeometry>
                </mxCell>
                <mxCell id="4CNLaxFEHcmkVep9LnnV-13" value="&lt;font style=&quot;font-size: 24px&quot;&gt;Password:&lt;/font&gt;" style="strokeWidth=1;shadow=0;dashed=0;align=center;html=1;shape=mxgraph.mockup.forms.anchor;fontSize=12;fontColor=#666666;align=left;resizeWidth=1;spacingLeft=0;rounded=1;labelBackgroundColor=#FFFFFF;sketch=1;fontFamily=Georgia;fillColor=#FFFF66;" parent="4CNLaxFEHcmkVep9LnnV-8" vertex="1">
                    <mxGeometry width="514" height="20" relative="1" as="geometry">
                        <mxPoint x="10" y="95" as="offset"/>
                    </mxGeometry>
                </mxCell>
                <mxCell id="4CNLaxFEHcmkVep9LnnV-14" value="********" style="strokeWidth=1;shadow=0;dashed=0;align=center;html=1;shape=mxgraph.mockup.forms.rrect;rSize=0;strokeColor=#999999;fontColor=#666666;align=left;spacingLeft=5;resizeWidth=1;rounded=1;labelBackgroundColor=#FFFFFF;sketch=1;fontFamily=Georgia;fontSize=24;fillColor=#FFFF66;" parent="4CNLaxFEHcmkVep9LnnV-8" vertex="1">
                    <mxGeometry width="771" height="25" relative="1" as="geometry">
                        <mxPoint x="99" y="144" as="offset"/>
                    </mxGeometry>
                </mxCell>
                <mxCell id="4CNLaxFEHcmkVep9LnnV-15" value="SIGN Out" style="strokeWidth=1;shadow=0;dashed=0;align=center;html=1;shape=mxgraph.mockup.forms.rrect;rSize=5;strokeColor=none;fontColor=#ffffff;fillColor=#66bbff;fontSize=26;fontStyle=1;rounded=1;labelBackgroundColor=#000000;sketch=1;fontFamily=Georgia;" parent="4CNLaxFEHcmkVep9LnnV-8" vertex="1">
                    <mxGeometry y="1" width="80" height="30" relative="1" as="geometry">
                        <mxPoint x="20" y="-150" as="offset"/>
                    </mxGeometry>
                </mxCell>
                <mxCell id="4CNLaxFEHcmkVep9LnnV-16" value="Forgot Password?" style="strokeWidth=1;shadow=0;dashed=0;align=center;html=1;shape=mxgraph.mockup.forms.anchor;fontSize=12;fontColor=#9999ff;align=left;spacingLeft=0;fontStyle=4;resizeWidth=1;rounded=1;labelBackgroundColor=#FFFFFF;sketch=1;fontFamily=Georgia;fillColor=#FFFF66;" parent="4CNLaxFEHcmkVep9LnnV-8" vertex="1">
                    <mxGeometry y="1" width="771" height="20" relative="1" as="geometry">
                        <mxPoint x="10" y="-110" as="offset"/>
                    </mxGeometry>
                </mxCell>
                <mxCell id="4CNLaxFEHcmkVep9LnnV-17" value="" style="shape=line;strokeColor=#ddeeff;strokeWidth=2;html=1;resizeWidth=1;rounded=1;labelBackgroundColor=#FFFFFF;sketch=1;fontFamily=Georgia;fontSize=24;fontColor=#000000;fillColor=#FFFF66;" parent="4CNLaxFEHcmkVep9LnnV-8" vertex="1">
                    <mxGeometry y="1" width="925.1999999999998" height="10" relative="1" as="geometry">
                        <mxPoint x="10" y="-90" as="offset"/>
                    </mxGeometry>
                </mxCell>
                <mxCell id="4CNLaxFEHcmkVep9LnnV-18" value="New User" style="strokeWidth=1;shadow=0;dashed=0;align=center;html=1;shape=mxgraph.mockup.forms.anchor;fontSize=12;fontColor=#666666;align=left;spacingLeft=0;resizeWidth=1;rounded=1;labelBackgroundColor=#FFFFFF;sketch=1;fontFamily=Georgia;fillColor=#FFFF66;" parent="4CNLaxFEHcmkVep9LnnV-8" vertex="1">
                    <mxGeometry y="1" width="771" height="20" relative="1" as="geometry">
                        <mxPoint x="10" y="-70" as="offset"/>
                    </mxGeometry>
                </mxCell>
                <mxCell id="4CNLaxFEHcmkVep9LnnV-19" value="SIGN UP" style="strokeWidth=1;shadow=0;dashed=0;align=center;html=1;shape=mxgraph.mockup.forms.rrect;rSize=5;strokeColor=none;fontColor=#ffffff;fillColor=#66bbff;fontSize=16;fontStyle=1;rounded=1;labelBackgroundColor=#FFFFFF;sketch=1;fontFamily=Georgia;" parent="4CNLaxFEHcmkVep9LnnV-8" vertex="1">
                    <mxGeometry y="1" width="80" height="30" relative="1" as="geometry">
                        <mxPoint x="20" y="-50" as="offset"/>
                    </mxGeometry>
                </mxCell>
            </root>
        </mxGraphModel>
    </diagram>
    <diagram name="Profile" id="nh05e4ANRpYtxMca3oq9">
        <mxGraphModel dx="612" dy="382" grid="0" gridSize="10" guides="1" tooltips="1" connect="1" arrows="1" fold="1" page="1" pageScale="1" pageWidth="1100" pageHeight="850" background="#99CCFF" math="0" shadow="0">
            <root>
                <mxCell id="MXKg0TITJ-tHG0S4VJq6-0"/>
                <mxCell id="MXKg0TITJ-tHG0S4VJq6-1" parent="MXKg0TITJ-tHG0S4VJq6-0"/>
                <mxCell id="MXKg0TITJ-tHG0S4VJq6-2" value="&lt;span style=&quot;color: rgba(0 , 0 , 0 , 0) ; font-family: monospace ; font-size: 0px&quot;&gt;%3CmxGraphModel%3E%3Croot%3E%3CmxCell%20id%3D%220%22%2F%3E%3CmxCell%20id%3D%221%22%20parent%3D%220%22%2F%3E%3CmxCell%20id%3D%222%22%20value%3D%22%26lt%3Bh1%26gt%3BTakes%26lt%3B%2Fh1%26gt%3B%26lt%3Bp%26gt%3BLorem%20ipsum%20dolor%20sit%20amet%2C%20consectetur%20adipisicing%20elit%2C%20sed%20do%20eiusmod%20tempor%20incididunt%20ut%20labore%20et%20dolore%20magna%20aliqua.%26lt%3B%2Fp%26gt%3B%22%20style%3D%22text%3Bhtml%3D1%3BstrokeColor%3Dnone%3BfillColor%3D%233333FF%3Bspacing%3D5%3BspacingTop%3D-20%3BwhiteSpace%3Dwrap%3Boverflow%3Dhidden%3Brounded%3D0%3Bsketch%3D1%3BfontFamily%3DGeorgia%3BfontSize%3D24%3B%22%20vertex%3D%221%22%20parent%3D%221%22%3E%3CmxGeometry%20x%3D%22362%22%20y%3D%22543%22%20width%3D%22707%22%20height%3D%22188%22%20as%3D%22geometry%22%2F%3E%3C%2FmxCell%3E%3C%2Froot%3E%3C%2FmxGraphModel%3E&lt;/span&gt;" style="rounded=0;whiteSpace=wrap;html=1;fontFamily=Georgia;fontSize=34;" parent="MXKg0TITJ-tHG0S4VJq6-1" vertex="1">
                    <mxGeometry x="182" y="110" width="2573" height="1299" as="geometry"/>
                </mxCell>
                <mxCell id="MXKg0TITJ-tHG0S4VJq6-3" value="Take it or Leave it" style="text;strokeColor=#001DBC;fillColor=#0050ef;html=1;fontSize=43;fontStyle=1;verticalAlign=middle;align=center;rounded=1;fontFamily=Georgia;arcSize=0;fontColor=#ffffff;sketch=1;" parent="MXKg0TITJ-tHG0S4VJq6-1" vertex="1">
                    <mxGeometry x="210" y="157" width="466.5" height="40" as="geometry"/>
                </mxCell>
                <mxCell id="MXKg0TITJ-tHG0S4VJq6-4" value="&lt;h1&gt;Profile&lt;/h1&gt;" style="text;html=1;strokeColor=none;fillColor=#3333FF;spacing=5;spacingTop=-20;whiteSpace=wrap;overflow=hidden;rounded=0;sketch=1;fontFamily=Georgia;fontSize=24;align=left;" parent="MXKg0TITJ-tHG0S4VJq6-1" vertex="1">
                    <mxGeometry x="847" y="293" width="1473" height="933" as="geometry"/>
                </mxCell>
                <mxCell id="MXKg0TITJ-tHG0S4VJq6-5" value="" style="html=1;shadow=0;dashed=0;shape=mxgraph.bootstrap.rrect;rSize=5;fillColor=none;strokeColor=#999999;align=left;spacing=15;fontSize=14;fontColor=#6C767D;rounded=1;labelBackgroundColor=#FFFFFF;sketch=1;fontFamily=Georgia;" parent="MXKg0TITJ-tHG0S4VJq6-1" vertex="1">
                    <mxGeometry width="800" height="30" relative="1" as="geometry">
                        <mxPoint x="1346" y="710" as="offset"/>
                    </mxGeometry>
                </mxCell>
                <mxCell id="MXKg0TITJ-tHG0S4VJq6-6" value="" style="html=1;shadow=0;dashed=0;shape=mxgraph.bootstrap.rrect;rSize=5;fillColor=none;strokeColor=#999999;align=left;spacing=15;fontSize=14;fontColor=#6C767D;rounded=1;labelBackgroundColor=#FFFFFF;sketch=1;fontFamily=Georgia;" parent="MXKg0TITJ-tHG0S4VJq6-1" vertex="1">
                    <mxGeometry width="800" height="30" relative="1" as="geometry">
                        <mxPoint x="1346" y="810" as="offset"/>
                    </mxGeometry>
                </mxCell>
                <mxCell id="MXKg0TITJ-tHG0S4VJq6-7" value="" style="rounded=1;whiteSpace=wrap;html=1;labelBackgroundColor=#FFFFFF;sketch=1;fontFamily=Georgia;fontSize=24;fontColor=#000000;fillColor=#FFFF66;" parent="MXKg0TITJ-tHG0S4VJq6-1" vertex="1">
                    <mxGeometry x="1058" y="435" width="1166" height="477" as="geometry"/>
                </mxCell>
                <mxCell id="MXKg0TITJ-tHG0S4VJq6-8" value="" style="strokeWidth=1;shadow=0;dashed=0;align=center;html=1;shape=mxgraph.mockup.forms.rrect;rSize=0;strokeColor=#6c8ebf;fillColor=#dae8fc;rounded=1;labelBackgroundColor=#000000;sketch=0;fontFamily=Georgia;fontSize=20;opacity=0;" parent="MXKg0TITJ-tHG0S4VJq6-1" vertex="1">
                    <mxGeometry x="1082" y="513" width="1028" height="329" as="geometry"/>
                </mxCell>
                <mxCell id="MXKg0TITJ-tHG0S4VJq6-9" value="CREATE A PROFILE" style="strokeWidth=1;shadow=0;dashed=0;align=center;html=1;shape=mxgraph.mockup.forms.anchor;fontSize=29;fontColor=#666666;align=left;resizeWidth=1;spacingLeft=0;rounded=1;labelBackgroundColor=#FFFFFF;sketch=1;fontFamily=Georgia;fillColor=#FFFF66;" parent="MXKg0TITJ-tHG0S4VJq6-8" vertex="1">
                    <mxGeometry width="514" height="20" relative="1" as="geometry">
                        <mxPoint x="10" y="10" as="offset"/>
                    </mxGeometry>
                </mxCell>
                <mxCell id="MXKg0TITJ-tHG0S4VJq6-10" value="" style="shape=line;strokeColor=#ddeeff;strokeWidth=2;html=1;resizeWidth=1;rounded=1;labelBackgroundColor=#FFFFFF;sketch=1;fontFamily=Georgia;fontSize=24;fontColor=#000000;fillColor=#FFFF66;" parent="MXKg0TITJ-tHG0S4VJq6-8" vertex="1">
                    <mxGeometry width="925.1999999999998" height="10" relative="1" as="geometry">
                        <mxPoint x="10" y="30" as="offset"/>
                    </mxGeometry>
                </mxCell>
                <mxCell id="MXKg0TITJ-tHG0S4VJq6-11" value="User Name:" style="strokeWidth=1;shadow=0;dashed=0;align=center;html=1;shape=mxgraph.mockup.forms.anchor;fontSize=22;fontColor=#666666;align=left;resizeWidth=1;spacingLeft=0;rounded=1;labelBackgroundColor=#FFFFFF;sketch=1;fontFamily=Georgia;fillColor=#FFFF66;" parent="MXKg0TITJ-tHG0S4VJq6-8" vertex="1">
                    <mxGeometry width="514" height="20" relative="1" as="geometry">
                        <mxPoint x="9" y="87" as="offset"/>
                    </mxGeometry>
                </mxCell>
                <mxCell id="MXKg0TITJ-tHG0S4VJq6-12" value="johndoe @ johndoe.com" style="strokeWidth=1;shadow=0;dashed=0;align=center;html=1;shape=mxgraph.mockup.forms.rrect;rSize=0;strokeColor=#999999;fontColor=#666666;align=left;spacingLeft=5;resizeWidth=1;rounded=1;labelBackgroundColor=#FFFFFF;sketch=1;fontFamily=Georgia;fontSize=33;fillColor=#FFFF66;" parent="MXKg0TITJ-tHG0S4VJq6-8" vertex="1">
                    <mxGeometry width="771" height="25" relative="1" as="geometry">
                        <mxPoint x="142" y="47" as="offset"/>
                    </mxGeometry>
                </mxCell>
                <mxCell id="MXKg0TITJ-tHG0S4VJq6-13" value="&lt;font style=&quot;font-size: 24px&quot;&gt;Password:&lt;/font&gt;" style="strokeWidth=1;shadow=0;dashed=0;align=center;html=1;shape=mxgraph.mockup.forms.anchor;fontSize=12;fontColor=#666666;align=left;resizeWidth=1;spacingLeft=0;rounded=1;labelBackgroundColor=#FFFFFF;sketch=1;fontFamily=Georgia;fillColor=#FFFF66;" parent="MXKg0TITJ-tHG0S4VJq6-8" vertex="1">
                    <mxGeometry width="514" height="20" relative="1" as="geometry">
                        <mxPoint x="8" y="137" as="offset"/>
                    </mxGeometry>
                </mxCell>
                <mxCell id="MXKg0TITJ-tHG0S4VJq6-14" value="********" style="strokeWidth=1;shadow=0;dashed=0;align=center;html=1;shape=mxgraph.mockup.forms.rrect;rSize=0;strokeColor=#999999;fontColor=#666666;align=left;spacingLeft=5;resizeWidth=1;rounded=1;labelBackgroundColor=#FFFFFF;sketch=1;fontFamily=Georgia;fontSize=24;fillColor=#FFFF66;" parent="MXKg0TITJ-tHG0S4VJq6-8" vertex="1">
                    <mxGeometry width="104" height="25" relative="1" as="geometry">
                        <mxPoint x="112" y="159" as="offset"/>
                    </mxGeometry>
                </mxCell>
                <mxCell id="MXKg0TITJ-tHG0S4VJq6-15" value="CREATE PROFILE" style="strokeWidth=1;shadow=0;dashed=0;align=center;html=1;shape=mxgraph.mockup.forms.rrect;rSize=5;strokeColor=none;fontColor=#ffffff;fillColor=#66bbff;fontSize=26;fontStyle=1;rounded=1;labelBackgroundColor=#000000;sketch=1;fontFamily=Georgia;" parent="MXKg0TITJ-tHG0S4VJq6-8" vertex="1">
                    <mxGeometry y="1" width="80" height="30" relative="1" as="geometry">
                        <mxPoint x="93" y="-140" as="offset"/>
                    </mxGeometry>
                </mxCell>
                <mxCell id="MXKg0TITJ-tHG0S4VJq6-16" value="Forgot Password?" style="strokeWidth=1;shadow=0;dashed=0;align=center;html=1;shape=mxgraph.mockup.forms.anchor;fontSize=12;fontColor=#9999ff;align=left;spacingLeft=0;fontStyle=4;resizeWidth=1;rounded=1;labelBackgroundColor=#FFFFFF;sketch=1;fontFamily=Georgia;fillColor=#FFFF66;" parent="MXKg0TITJ-tHG0S4VJq6-8" vertex="1">
                    <mxGeometry y="1" width="771" height="20" relative="1" as="geometry">
                        <mxPoint x="14" y="-105" as="offset"/>
                    </mxGeometry>
                </mxCell>
                <mxCell id="MXKg0TITJ-tHG0S4VJq6-17" value="" style="shape=line;strokeColor=#ddeeff;strokeWidth=2;html=1;resizeWidth=1;rounded=1;labelBackgroundColor=#FFFFFF;sketch=1;fontFamily=Georgia;fontSize=24;fontColor=#000000;fillColor=#FFFF66;" parent="MXKg0TITJ-tHG0S4VJq6-8" vertex="1">
                    <mxGeometry y="1" width="925.1999999999998" height="10" relative="1" as="geometry">
                        <mxPoint x="10" y="-90" as="offset"/>
                    </mxGeometry>
                </mxCell>
                <mxCell id="MXKg0TITJ-tHG0S4VJq6-18" value="New User" style="strokeWidth=1;shadow=0;dashed=0;align=center;html=1;shape=mxgraph.mockup.forms.anchor;fontSize=12;fontColor=#666666;align=left;spacingLeft=0;resizeWidth=1;rounded=1;labelBackgroundColor=#FFFFFF;sketch=1;fontFamily=Georgia;fillColor=#FFFF66;" parent="MXKg0TITJ-tHG0S4VJq6-8" vertex="1">
                    <mxGeometry y="1" width="771" height="20" relative="1" as="geometry">
                        <mxPoint x="10" y="-70" as="offset"/>
                    </mxGeometry>
                </mxCell>
                <mxCell id="MXKg0TITJ-tHG0S4VJq6-19" value="SIGN UP" style="strokeWidth=1;shadow=0;dashed=0;align=center;html=1;shape=mxgraph.mockup.forms.rrect;rSize=5;strokeColor=none;fontColor=#ffffff;fillColor=#66bbff;fontSize=16;fontStyle=1;rounded=1;labelBackgroundColor=#FFFFFF;sketch=1;fontFamily=Georgia;" parent="MXKg0TITJ-tHG0S4VJq6-8" vertex="1">
                    <mxGeometry y="1" width="80" height="30" relative="1" as="geometry">
                        <mxPoint x="20" y="-50" as="offset"/>
                    </mxGeometry>
                </mxCell>
                <mxCell id="MXKg0TITJ-tHG0S4VJq6-20" value="Email:" style="strokeWidth=1;shadow=0;dashed=0;align=center;html=1;shape=mxgraph.mockup.forms.anchor;fontSize=22;fontColor=#666666;align=left;resizeWidth=1;spacingLeft=0;rounded=1;labelBackgroundColor=#FFFFFF;sketch=1;fontFamily=Georgia;fillColor=#FFFF66;" parent="MXKg0TITJ-tHG0S4VJq6-8" vertex="1">
                    <mxGeometry x="16" y="39" width="514" height="20" as="geometry"/>
                </mxCell>
                <mxCell id="MXKg0TITJ-tHG0S4VJq6-21" value="johndoe&amp;nbsp;" style="strokeWidth=1;shadow=0;dashed=0;align=center;html=1;shape=mxgraph.mockup.forms.rrect;rSize=0;strokeColor=#999999;fontColor=#666666;align=left;spacingLeft=5;resizeWidth=1;rounded=1;labelBackgroundColor=#FFFFFF;sketch=1;fontFamily=Georgia;fontSize=33;fillColor=#FFFF66;" parent="MXKg0TITJ-tHG0S4VJq6-8" vertex="1">
                    <mxGeometry x="132" y="101" width="771" height="25" as="geometry"/>
                </mxCell>
            </root>
        </mxGraphModel>
    </diagram>
</mxfile>